<svg t="1697729017406" class="icon" viewBox="0 0 1024 1024" version="1.1" xmlns="http://www.w3.org/2000/svg" p-id="2844" width="200" height="200"><path d="M586.4 1020H437.6c-8.8 0-16-7.2-16-16v-56.8c-37.6-9.6-73.6-24-106.4-44l-39.2 40c-3.2 3.2-7.2 4.8-11.2 4.8-4 0-8-1.6-11.2-4.8l-105.6-106.4c-6.4-6.4-6.4-16 0-22.4l40-40c-20-33.6-35.2-69.6-44-107.2h-56c-8.8 0-16-7.2-16-16v-48.8C32.8 588.8 5.6 551.2 5.6 508.8v-2.4c0-49.6 36-90.4 83.2-97.6 6.4-90.4 39.2-174.4 95.2-244.8 28.8-36.8 63.2-68 102.4-92.8 29.6-19.2 61.6-35.2 95.2-45.6 84.8-28.8 179.2-28.8 264 0 32.8 11.2 64.8 26.4 95.2 45.6 39.2 25.6 73.6 56.8 102.4 92.8 56 70.4 88.8 154.4 95.2 244.8 47.2 7.2 83.2 48 83.2 97.6v2.4c0 42.4-27.2 80-66.4 93.6v48.8c0 4-1.6 8-4.8 11.2-3.2 3.2-7.2 4.8-11.2 4.8h-56c-9.6 38.4-24 74.4-44 107.2l40 40c6.4 6.4 6.4 16 0 22.4l-105.6 106.4c-6.4 6.4-16.8 6.4-22.4 0l-39.2-40c-32.8 20-68.8 35.2-106.4 44v56.8c0 4-1.6 8-4.8 11.2-5.6 3.2-9.6 4.8-14.4 4.8z m-132.8-32h117.6v-53.6c0-7.2 5.6-14.4 12.8-16 43.2-8.8 83.2-25.6 119.2-49.6 6.4-4 14.4-3.2 20 2.4l37.6 37.6 83.2-84-37.6-37.6c-5.6-5.6-6.4-13.6-2.4-20 24-36.8 40.8-76.8 49.6-120 1.6-7.2 8-12.8 16-12.8h52.8v-44.8c0-8 5.6-14.4 12.8-16 31.2-6.4 53.6-33.6 53.6-65.6v-2.4c0-36.8-29.6-66.4-66.4-66.4-8.8 0-16-6.4-16-15.2-3.2-88.8-34.4-171.2-88.8-240-27.2-33.6-59.2-63.2-95.2-86.4-28-17.6-56.8-32-88-42.4-78.4-26.4-165.6-26.4-244 0-30.4 10.4-60 24.8-88 42.4-36 23.2-68 52-95.2 86.4-54.4 68.8-85.6 151.2-88.8 240 0 8.8-7.2 15.2-16 15.2-36.8 0-66.4 29.6-66.4 66.4v2.4c0 32 22.4 59.2 53.6 65.6 7.2 1.6 12.8 8 12.8 16v44.8h52.8c7.2 0 14.4 5.6 16 12.8 8.8 43.2 25.6 84 49.6 120 4 6.4 3.2 14.4-2.4 20l-37.6 37.6L264 908.8l37.6-37.6c5.6-5.6 13.6-6.4 20-2.4 36 24 76.8 40.8 119.2 49.6 7.2 1.6 12.8 8 12.8 16v53.6z" fill="#1296db" p-id="2845"></path><path d="M512 384c-74.4 0-135.2-62.4-135.2-138.4V40.8c0-3.2 2.4-6.4 5.6-7.2 83.2-28 176-28 259.2 0 3.2 0.8 5.6 4 5.6 7.2v204C647.2 321.6 586.4 384 512 384zM392.8 46.4v198.4C392.8 312.8 446.4 368 512 368s119.2-55.2 119.2-122.4V46.4c-76.8-24.8-161.6-24.8-238.4 0z" fill="#1296db" p-id="2846"></path><path d="M512 162.4c40 0 72 33.6 72 75.2S552 312 512 312s-72-33.6-72-75.2 32-74.4 72-74.4m0-16c-48.8 0-88 40.8-88 91.2S463.2 328 512 328s88-40.8 88-91.2-39.2-90.4-88-90.4z" fill="#1296db" p-id="2847"></path><path d="M921.6 432.8H102.4c-2.4 0-4-0.8-5.6-2.4-1.6-1.6-2.4-4-2.4-5.6 3.2-94.4 36-182.4 94.4-255.2 2.4-2.4 5.6-4 8.8-2.4 3.2 0.8 5.6 4 5.6 7.2v80c0 23.2 18.4 42.4 41.6 42.4s41.6-19.2 41.6-42.4V84.8c0-2.4 1.6-5.6 4-6.4 29.6-19.2 60.8-34.4 92.8-44.8 2.4-0.8 4.8-0.8 7.2 0.8 2.4 1.6 3.2 4 3.2 6.4v204C392.8 312.8 446.4 368 512 368c65.6 0 119.2-55.2 119.2-122.4V40.8c0-2.4 1.6-4.8 3.2-6.4 2.4-1.6 4.8-1.6 7.2-0.8a432 432 0 0 1 92.8 44.8c2.4 1.6 4 4 4 6.4v169.6c0 23.2 18.4 42.4 41.6 42.4 22.4 0 41.6-19.2 41.6-42.4v-80c0-3.2 2.4-6.4 5.6-7.2 3.2-0.8 6.4 0 8.8 2.4 58.4 72.8 90.4 160.8 94.4 255.2 0 2.4-0.8 4-2.4 5.6-2.4 1.6-4.8 2.4-6.4 2.4z m-810.4-16h802.4c-4.8-79.2-30.4-154.4-76-218.4v56c0 32-25.6 58.4-57.6 58.4s-57.6-26.4-57.6-58.4V89.6c-24-15.2-48.8-28-75.2-37.6v192.8C647.2 321.6 586.4 384 512 384c-74.4 0-135.2-62.4-135.2-138.4V52c-26.4 9.6-51.2 22.4-75.2 37.6v165.6c0 32-25.6 58.4-57.6 58.4s-57.6-26.4-57.6-58.4v-56c-44.8 63.2-71.2 138.4-75.2 217.6z" fill="#1296db" p-id="2848"></path><path d="M780 313.6c-32 0-57.6-26.4-57.6-58.4V84.8c0-3.2 1.6-5.6 4-7.2 2.4-1.6 5.6-1.6 8 0 38.4 24.8 72 55.2 100.8 91.2 0.8 1.6 1.6 3.2 1.6 4.8v80c0 33.6-25.6 60-56.8 60z m-41.6-213.6v154.4c0 23.2 18.4 42.4 41.6 42.4 22.4 0 41.6-19.2 41.6-42.4v-77.6c-24.8-28.8-52-55.2-83.2-76.8zM244 313.6c-32 0-57.6-26.4-57.6-58.4v-80c0-1.6 0.8-3.2 1.6-4.8 28.8-36 62.4-66.4 100.8-91.2 2.4-1.6 5.6-1.6 8 0 2.4 1.6 4 4 4 7.2V256c0.8 31.2-24.8 57.6-56.8 57.6z m-40.8-136v77.6c0 23.2 18.4 42.4 41.6 42.4s41.6-19.2 41.6-42.4V100c-32 21.6-59.2 48-83.2 77.6zM512 766.4c-99.2 0-180.8-75.2-189.6-174.4 0-2.4 0.8-4.8 2.4-6.4 1.6-1.6 4-2.4 5.6-2.4h362.4c2.4 0 4 0.8 5.6 2.4 1.6 1.6 2.4 4 2.4 6.4-8 100-89.6 174.4-188.8 174.4zM340 600C351.2 686.4 424 750.4 512 750.4v8-8c88 0 160.8-64 172-151.2h-344z" fill="#1296db" p-id="2849"></path><path d="M586.4 1012H437.6c-4.8 0-8-3.2-8-8v-63.2c-41.6-9.6-80-25.6-116-48l-44 44c-1.6 1.6-3.2 2.4-5.6 2.4-2.4 0-4-0.8-5.6-2.4l-105.6-106.4c-3.2-3.2-3.2-8 0-11.2l44-44c-22.4-36-38.4-75.2-48-116.8h-62.4c-4.8 0-8-3.2-8-8v-60.8c0-2.4 0.8-4.8 3.2-6.4 1.6-1.6 4-2.4 6.4-1.6 4.8 0.8 9.6 1.6 15.2 1.6h228c4 0 8 3.2 8 7.2 8 91.2 82.4 160 173.6 160 91.2 0 165.6-68.8 173.6-160 0-4 4-7.2 8-7.2h228c4.8 0 9.6-0.8 15.2-1.6 2.4-0.8 4.8 0 6.4 1.6 1.6 1.6 3.2 4 3.2 6.4v60.8c0 2.4-0.8 4-2.4 5.6-1.6 1.6-3.2 2.4-5.6 2.4h-62.4c-9.6 41.6-25.6 80.8-48 116.8l44 44c3.2 3.2 3.2 8 0 11.2l-105.6 106.4c-3.2 3.2-8 3.2-11.2 0l-44-44c-35.2 22.4-74.4 38.4-116 48v63.2c0 2.4-0.8 4-2.4 5.6-2.4 1.6-4.8 2.4-7.2 2.4z m-140.8-16h133.6v-61.6c0-4 2.4-7.2 6.4-8 44-8.8 84.8-26.4 122.4-51.2 3.2-2.4 7.2-1.6 10.4 0.8L760 920l94.4-95.2-43.2-43.2c-2.4-2.4-3.2-7.2-0.8-10.4 24-37.6 41.6-79.2 50.4-123.2 0.8-4 4-6.4 8-6.4h60.8v-43.2H700.8c-12 96-92 167.2-188.8 167.2-96.8 0-176.8-71.2-188.8-167.2H94.4v43.2h60.8c4 0 7.2 2.4 8 6.4 8.8 44 26.4 85.6 50.4 123.2 2.4 3.2 1.6 7.2-0.8 10.4l-43.2 43.2L264 920l43.2-43.2c2.4-2.4 7.2-3.2 10.4-0.8 36.8 24.8 78.4 41.6 122.4 51.2 4 0.8 6.4 4 6.4 8l-0.8 60.8z" fill="#1296db" p-id="2850"></path><path d="M921.6 608H102.4c-6.4 0-12.8-0.8-19.2-1.6C37.6 596.8 4 556.8 4 509.6v-2.4C4 452 48 408 102.4 408h818.4c54.4 0 98.4 44 98.4 98.4v2.4c0 47.2-33.6 87.2-79.2 96.8-5.6 1.6-12 2.4-18.4 2.4zM102.4 440c-36.8 0-66.4 29.6-66.4 66.4v2.4c0 32 22.4 59.2 53.6 65.6 4 0.8 8.8 1.6 13.6 1.6h818.4c4.8 0 8.8-0.8 13.6-1.6 31.2-6.4 53.6-33.6 53.6-65.6v-2.4c0-36.8-29.6-66.4-66.4-66.4H102.4z" fill="#1296db" p-id="2851"></path></svg>